<svg version="1.2" baseProfile="tiny" xmlns="http://www.w3.org/2000/svg" width="1792" height="1408" viewBox="0 0 1792 1408"><path d="M1792 454v794c0 44-15.668 81.667-47 113-31.334 31.334-69 47-113 47H160c-44 0-81.667-15.666-113-47-31.334-31.333-47-69-47-113V454c29.333 32.667 63 61.667 101 87 241.332 164 407 279 497 345 38 28 68.832 49.834 92.5 65.5 23.666 15.667 55.166 31.667 94.5 48 39.332 16.334 76 24.5 110 24.5h2c34 0 70.666-8.166 110-24.5 39.332-16.333 70.832-32.333 94.5-48 23.666-15.666 54.5-37.5 92.5-65.5 113.332-82 279.332-197 498-345 38-26 71.332-55 100-87zm0-294c0 52.667-16.334 103-49 151-32.668 48-73.334 89-122 123-250.668 174-406.668 282.334-468 325-6.668 4.667-20.834 14.834-42.5 30.5-21.668 15.667-39.668 28.334-54 38-14.334 9.667-31.668 20.5-52 32.5-20.334 12-39.5 21-57.5 27s-34.668 9-50 9h-2c-15.334 0-32-3-50-9s-37.168-15-57.5-27c-20.334-12-37.668-22.833-52-32.5-14.334-9.666-32.334-22.333-54-38-21.668-15.666-35.834-25.833-42.5-30.5-60.668-42.666-148-103.5-262-182.5S194.666 450 172 434c-41.334-28-80.334-66.5-117-115.5C18.333 269.5 0 224 0 182c0-52 13.833-95.333 41.5-130C69.166 17.334 108.666 0 160 0h1472c43.332 0 80.832 15.667 112.5 47 31.666 31.334 47.5 69 47.5 113z"/></svg>